<svg xmlns="http://www.w3.org/2000/svg" viewBox="0 0 64 64" role="img" aria-labelledby="title desc">
  <title id="title">BTC Auto Trader favicon</title>
  <desc id="desc">Dark rounded square with coin ring, bitcoin mark, candlesticks, and an upward trend arrow.</desc>

  <defs>
    <linearGradient id="bg" x1="0" y1="0" x2="1" y2="1">
      <stop offset="0%" stop-color="#0b1727" />
      <stop offset="100%" stop-color="#12243a" />
    </linearGradient>
    <linearGradient id="coin" x1="0" y1="0" x2="1" y2="1">
      <stop offset="0%" stop-color="#1fc9a9" />
      <stop offset="100%" stop-color="#0f8f79" />
    </linearGradient>
    <linearGradient id="up" x1="0" y1="1" x2="1" y2="0">
      <stop offset="0%" stop-color="#f07b4f" />
      <stop offset="100%" stop-color="#ffb36e" />
    </linearGradient>
  </defs>

  <rect width="64" height="64" rx="14" fill="url(#bg)" />

  <circle cx="32" cy="29" r="18" fill="#0f1d31" stroke="url(#coin)" stroke-width="2.8" />

  <rect x="26" y="18" width="6" height="22" rx="3" fill="#e9f7ff" />
  <rect x="30" y="18" width="12" height="8" rx="4" fill="#e9f7ff" />
  <rect x="30" y="29" width="14" height="9" rx="4.5" fill="#e9f7ff" />
  <rect x="24" y="16" width="2" height="26" rx="1" fill="#e9f7ff" />
  <rect x="41" y="16" width="2" height="26" rx="1" fill="#e9f7ff" />

  <rect x="13" y="44" width="4" height="10" rx="1" fill="#1fc9a9" />
  <rect x="20" y="40" width="4" height="14" rx="1" fill="#f07b4f" />
  <rect x="27" y="42" width="4" height="12" rx="1" fill="#1fc9a9" />

  <polyline points="34,49 42,43 48,45 54,37" fill="none" stroke="url(#up)" stroke-width="3" stroke-linecap="round" stroke-linejoin="round" />
  <path d="M52 35l4 1-2 3z" fill="#ffb36e" />
</svg>
